<svg width="32" height="30" viewBox="0 0 24 30" fill="none" xmlns="http://www.w3.org/2000/svg">
<g id="Logo" clip-path="url(#clip0_736_9725)">
<path id="Vector" fill-rule="evenodd" clip-rule="evenodd" d="M3.54315 18.5326C4.31289 18.7002 5.11826 18.6249 5.84008 18.3178C6.5619 18.0108 7.1618 17.4883 7.55102 16.8276L11.3392 10.4512C11.694 10.5318 12.0344 10.6628 12.3491 10.8399C13.1946 11.3157 13.8105 12.0937 14.0627 13.0044C14.3149 13.9151 14.183 14.8848 13.6957 15.7024L6.85292 27.2038C6.61372 27.6078 6.29378 27.9621 5.91156 28.2465C5.52934 28.5309 5.0924 28.7396 4.62593 28.8607C4.15947 28.9818 3.6727 29.0128 3.19371 28.952C2.71472 28.8912 2.25298 28.7398 1.83511 28.5064C0.990708 28.0287 0.376117 27.2499 0.124683 26.339C-0.126751 25.428 0.00525592 24.4584 0.492061 23.6405L3.54315 18.5326Z" fill="#B7B7DB"/>
<path id="Vector_2" d="M13.0435 0.477807C12.6256 0.244458 12.1639 0.0930149 11.6849 0.0322104C11.2059 -0.0285941 10.7191 0.0024431 10.2527 0.123532C9.78621 0.244621 9.34927 0.453367 8.96705 0.737732C8.58483 1.0221 8.26489 1.37646 8.02568 1.78038L1.17579 13.2989C0.688518 14.1165 0.556625 15.0862 0.808831 15.9969C1.06104 16.9076 1.67692 17.6855 2.52238 18.1614C2.84035 18.3331 3.18312 18.4584 3.53941 18.533L7.33467 12.143C7.72389 11.4823 8.32379 10.9598 9.04561 10.6528C9.76743 10.3457 10.5728 10.2704 11.3425 10.438L14.3865 5.32323C14.8667 4.50722 14.995 3.54253 14.7439 2.63647C14.4927 1.73042 13.8822 0.955336 13.0435 0.477807Z" fill="#BDDBC7"/>
<!-- <path id="Vector_3" d="M20.2617 14.4171C20.2617 12.0415 20.9988 10.0752 22.473 8.51799C23.1756 7.75461 24.0436 7.14865 25.0158 6.74275C25.9881 6.33685 27.0409 6.14087 28.1003 6.1686C29.2232 6.15736 30.3314 6.41516 31.325 6.91877C32.3162 7.42775 33.1667 8.15726 33.8056 9.04652V6.42434H36.3357V22.3757C36.3357 24.6671 35.614 26.5107 34.1706 27.9065C32.7271 29.3023 30.8088 30.0024 28.4157 30.007C26.3178 30.007 24.5956 29.5012 23.249 28.4896C22.6034 28.0184 22.0632 27.4268 21.6607 26.7501C21.2582 26.0734 21.0018 25.3255 20.9067 24.5512L23.4971 24.0568C23.6463 25.0796 24.2013 26.0071 25.0457 26.6448C25.9009 27.295 27.0242 27.6201 28.4157 27.6201C30.0269 27.6201 31.3262 27.1722 32.3137 26.2766C33.3012 25.3809 33.7961 24.1306 33.7985 22.5257V19.7774C33.1454 20.6455 32.2976 21.3611 31.3179 21.871C30.3344 22.3679 29.2394 22.6254 28.1286 22.6212C27.0709 22.649 26.0196 22.4547 25.0478 22.0519C24.076 21.6491 23.207 21.0475 22.5013 20.2889C21.0082 18.7385 20.2617 16.7812 20.2617 14.4171ZM22.9159 14.4171C22.9159 16.1425 23.4215 17.5541 24.4326 18.6521C24.9265 19.1862 25.5365 19.6092 26.2194 19.8909C26.9023 20.1726 27.6412 20.3061 28.3838 20.282C29.1234 20.3062 29.8592 20.1708 30.5373 19.8858C31.2155 19.6008 31.8188 19.1735 32.3031 18.6351C33.2929 17.5575 33.7879 16.1515 33.7879 14.4171C33.7879 12.6826 33.2929 11.2652 32.3031 10.165C31.8181 9.62779 31.2145 9.20174 30.5364 8.91796C29.8583 8.63418 29.1228 8.49985 28.3838 8.52481C27.6428 8.50071 26.9055 8.63536 26.2253 8.91901C25.545 9.20267 24.9387 9.62824 24.4503 10.165C23.4143 11.3533 22.8683 12.8666 22.9159 14.4171Z" fill="#FFFFFF"/> -->
<!-- <path id="Vector_4" d="M41.5657 22.535H39.0391V6.42341H41.5196V8.52389C41.9907 7.81463 42.6372 7.22884 43.4013 6.81895C44.1971 6.38906 45.0969 6.1691 46.0094 6.18131C47.0235 6.16287 48.0234 6.41168 48.9011 6.90079C49.7674 7.39408 50.4562 8.13061 50.8749 9.0115C51.3726 8.15751 52.0917 7.44209 52.9621 6.93489C54.0602 6.32241 55.334 6.06632 56.595 6.20449C57.8561 6.34266 59.0375 6.86777 59.9644 7.70211C61.0393 8.75689 61.5767 10.2959 61.5767 12.3191V22.5487H59.0324V12.4486C59.0324 11.1802 58.7099 10.2163 58.065 9.55708C57.7357 9.22311 57.3354 8.96155 56.8913 8.79028C56.4473 8.61902 55.9701 8.54211 55.4923 8.56481C54.9715 8.54701 54.4523 8.62988 53.9653 8.80852C53.4784 8.98715 53.0336 9.25792 52.6573 9.60481C51.9203 10.2868 51.5517 11.2666 51.5517 12.5441V22.535H49.0428V12.4486C49.0428 11.1802 48.7215 10.2163 48.0789 9.55708C47.751 9.22427 47.3525 8.96337 46.9103 8.79214C46.4682 8.62091 45.9929 8.54337 45.5169 8.56481C44.9892 8.54928 44.4641 8.64084 43.9756 8.83354C43.4872 9.02624 43.0464 9.31576 42.6819 9.68324C41.9354 10.4198 41.561 11.453 41.5586 12.7828L41.5657 22.535Z" fill="#FFFFFF"/> -->
<!-- <path id="Vector_5" d="M61.6094 8.66223V6.42536H64.3734V3.57812H66.9178V6.42536H72.8782V8.66223H66.9178V17.5654C66.9178 18.5588 67.1446 19.2885 67.5982 19.7545C68.0517 20.2205 68.7522 20.4479 69.6995 20.4365C70.5401 20.397 71.3656 20.2074 72.134 19.8773L72.7187 22.0016C71.6567 22.4924 70.4982 22.7597 69.3204 22.7859C67.7493 22.7859 66.5327 22.3642 65.6704 21.5208C64.8081 20.6775 64.3758 19.4954 64.3734 17.9746V8.66223H61.6094Z" fill="#FFFFFF"/> -->
</g>
<defs>
<clipPath id="clip0_736_9725">
<rect width="32" height="30" fill="white"/>
</clipPath>
</defs>
</svg>
